<?xml version='1.0' encoding='utf-8'?>
<svg xmlns="http://www.w3.org/2000/svg" width="100" height="100" viewBox="0 0 100 100" fill="none">
<path d="M52.5654 9.09766C53.7845 9.18864 54.7615 9.93452 55.4717 11.1865C55.9691 12.0635 56.3567 13.2243 56.6426 14.6836C58.2075 12.879 59.7398 11.5599 61.1787 10.7197C62.9715 9.67295 64.7306 9.3106 66.2207 9.86035C67.7382 10.4204 68.7092 11.8248 69.1279 13.7061C69.4739 15.2608 69.4648 17.2129 69.0654 19.5059C71.0557 18.8973 72.6527 18.8513 73.8603 19.4346C75.4156 20.1857 75.9929 21.7985 76.1103 23.542C76.2288 25.3007 75.9047 27.4427 75.4023 29.6611C74.985 31.5043 74.4318 33.4482 73.8721 35.3359C74.8383 35.3269 75.6664 35.5266 76.3271 35.9795C77.2887 36.6386 77.7044 37.6971 77.8076 38.8467C77.91 39.9878 77.7187 41.3255 77.3623 42.7402C77.0034 44.1651 76.4632 45.7226 75.8281 47.3213C74.5591 50.516 72.882 53.9473 71.4424 56.9141C70.0154 59.8548 68.8632 62.2608 68.4746 63.6357C68.8005 77.1709 61.3616 87.0152 52.2617 89.3838C47.6904 90.5736 42.7557 89.8513 38.3047 86.8008C33.8675 83.7596 29.9613 78.4426 27.3184 70.5176L26.8604 69.1953C22.2379 55.5202 21.1965 41.5782 23.002 27.2822C23.3757 24.3226 24.1738 22.0287 25.4199 20.7168C26.0621 20.0408 26.8422 19.6083 27.7363 19.5225C28.6207 19.4377 29.5168 19.7013 30.3867 20.2275C31.2151 20.7288 31.9323 21.5306 32.5449 22.4648C33.1622 23.4064 33.7039 24.5296 34.1621 25.7324C34.7278 27.2174 35.1771 28.8525 35.4873 30.4678C37.9752 25.1401 41.9606 18.0321 45.7773 13.5479C46.9071 12.2205 48.0481 11.0911 49.1562 10.3047C50.2477 9.53015 51.4142 9.01176 52.5654 9.09766Z" fill="#F9DC79" stroke="#876EFF" stroke-width="1.67"/>
<path d="M56.105 16.664C63.857 6.57814 70.6084 9.32365 67.9547 20.7839C78.4269 16.6292 75.4217 27.2787 72.7205 36.2784C84.1776 34.3911 69.1739 57.7073 67.638 63.5277C68.3759 90.1309 38.5141 101.483 28.1052 70.2379C23.143 56.276 21.9809 42.0291 23.8302 27.3864C24.5649 21.5692 26.9082 19.0992 29.9546 20.9422C32.6811 22.592 34.6634 28.6816 35.0656 33.4727C39.4989 22.8327 53.8788 -1.97506 56.1082 16.664H56.105Z" fill="#876EFF"/>
<path d="M52.3994 11.3174C52.676 11.338 53.0799 11.4782 53.5371 12.2842C53.9592 13.0285 54.3478 14.2235 54.6191 16.0215L54.7275 16.8291C54.7459 16.9827 54.7877 17.1349 54.8584 17.2783C55.0924 17.7532 55.5761 18.0537 56.1055 18.0537H56.1084C56.5056 18.0536 56.8837 17.8839 57.1475 17.5869C57.1838 17.546 57.2171 17.5024 57.248 17.458C59.1028 15.055 60.8353 13.4973 62.3008 12.6416C63.797 11.768 64.834 11.7205 65.4512 11.9482C66.0228 12.1594 66.6382 12.7613 66.9561 14.1895C67.2757 15.6262 67.2371 17.7218 66.6006 20.4707C66.4842 20.9741 66.6562 21.5009 67.0478 21.8379C67.4398 22.175 67.9873 22.2668 68.4678 22.0762C71.0112 21.0672 72.2992 21.1519 72.8926 21.4385C73.3644 21.6664 73.7928 22.24 73.8906 23.6914C73.9867 25.1177 73.723 27.0023 73.2324 29.1689C72.7465 31.3149 72.066 33.6253 71.3896 35.8789C71.2518 36.3382 71.3601 36.8361 71.6768 37.1963C71.9934 37.5563 72.4732 37.7282 72.9463 37.6504C74.2157 37.4413 74.8091 37.6378 75.0684 37.8154C75.2881 37.9661 75.523 38.2799 75.5918 39.0459C75.6618 39.8262 75.5346 40.8842 75.2041 42.1963C74.8778 43.4918 74.3752 44.9507 73.7598 46.5C72.5272 49.6029 70.8905 52.9542 69.4404 55.9424C68.0312 58.8464 66.7217 61.5518 66.2939 63.1728C66.2601 63.3011 66.2453 63.4338 66.249 63.5664C66.604 76.3667 59.6182 85.1697 51.7012 87.2305C47.754 88.2578 43.4833 87.6521 39.5635 84.9658C35.6257 82.267 31.958 77.406 29.4238 69.7988L29.415 69.7725L28.9678 68.4844C24.6094 55.5911 23.5106 42.4383 25.0469 28.9141L25.209 27.5605C25.5656 24.7372 26.2872 23.0344 27.0332 22.249C27.3743 21.8899 27.6793 21.7632 27.9482 21.7373C28.2333 21.71 28.6544 21.7804 29.2354 22.1318C29.6726 22.3966 30.1709 22.9011 30.6846 23.6846C31.1905 24.4561 31.6645 25.4258 32.083 26.5244C32.9212 28.7248 33.4899 31.317 33.6807 33.5889C33.7343 34.2274 34.2175 34.7464 34.8506 34.8457C35.4834 34.9448 36.1021 34.599 36.3486 34.0078C38.5364 28.7572 43.1734 20.0392 47.4717 14.9893C48.5406 13.7334 49.5461 12.7566 50.4443 12.1191C51.3697 11.4625 52.0099 11.2884 52.3994 11.3174Z" stroke="white" stroke-opacity="0.36" stroke-width="2.78" stroke-linejoin="round"/>
<path d="M62.7318 59.6062C62.4689 59.6062 62.2156 59.4668 62.0794 59.223C53.2634 43.3326 38.95 40.5269 38.8075 40.5016C38.4022 40.4256 38.1362 40.0393 38.209 39.6339C38.285 39.2286 38.6745 38.9626 39.0767 39.0354C39.691 39.1494 54.2292 41.9994 63.3841 58.501C63.5836 58.862 63.4538 59.3148 63.0928 59.5143C62.9788 59.5777 62.8553 59.6093 62.7318 59.6093V59.6062Z" fill="black"/>
<path d="M44.1744 41.7909C44.0319 41.7909 43.8862 41.7498 43.7564 41.6611C43.4144 41.4299 43.3257 40.9676 43.5569 40.6256C43.6202 40.5338 49.9061 31.2237 53.1836 23.3229C53.3419 22.9429 53.7821 22.7624 54.1589 22.9207C54.5389 23.079 54.7194 23.516 54.5611 23.896C51.2234 31.9394 44.852 41.3698 44.7887 41.4648C44.643 41.6769 44.4087 41.7909 44.1712 41.7909H44.1744Z" fill="black"/>
<path d="M52.9453 47.4785C52.8376 47.4785 52.73 47.4564 52.6286 47.4089C52.255 47.2347 52.0935 46.7882 52.2708 46.4177C59.4243 31.148 63.7373 26.4043 63.921 26.2111C64.1997 25.9103 64.6715 25.8913 64.9723 26.17C65.2732 26.4486 65.2922 26.9205 65.0135 27.2245C64.9723 27.272 60.6498 32.0505 53.6198 47.051C53.4931 47.3234 53.224 47.4817 52.9453 47.4817V47.4785Z" fill="black"/>
<path d="M60.8024 55.4648C60.7233 55.4648 60.6473 55.4522 60.5681 55.4268C60.1754 55.297 59.9633 54.8758 60.0931 54.4863C62.7689 46.3575 67.3859 41.4998 67.5791 41.2971C67.8641 40.9995 68.3359 40.99 68.6336 41.275C68.9313 41.56 68.9408 42.0318 68.6558 42.3295C68.6114 42.377 64.0768 47.165 61.5118 54.9518C61.4073 55.2653 61.1159 55.4648 60.8024 55.4648Z" fill="black"/>
<path d="M39.3115 62.7149C39.2418 62.7149 39.1753 62.7054 39.1056 62.6864C38.7098 62.5724 38.4818 62.1608 38.5926 61.7649C41.1323 52.9014 36.4551 45.9505 36.4076 45.8809C36.1733 45.542 36.2588 45.0765 36.5976 44.8422C36.9365 44.6079 37.402 44.6934 37.6363 45.0322C37.8453 45.3362 42.7663 52.6132 40.0271 62.1734C39.9321 62.4996 39.6345 62.7149 39.3083 62.7149H39.3115Z" fill="black"/>
</svg>